<?xml version="1.0" encoding="utf-8"?>
<!-- Generator: Adobe Illustrator 18.1.1, SVG Export Plug-In . SVG Version: 6.00 Build 0)  -->
<svg version="1.1" id="Layer_1" xmlns="http://www.w3.org/2000/svg" xmlns:xlink="http://www.w3.org/1999/xlink" x="0px" y="0px"
	 viewBox="0 0 64 64" enable-background="new 0 0 64 64" xml:space="preserve">
<path fill-rule="evenodd" clip-rule="evenodd" fill="#CB2229" d="M40-0.1C28.5-0.1,17.1,8,14.6,17.9L7.8,46
	c-2.4,9.9,5.1,17.9,16.6,17.9c7.6,0,15.2-3.5,20.2-8.8c-5.3,0.2-9.4-1.6-12.1-5.8c-2.4-4.5-4.5-9.6-6.5-14.8
	c-2.7-6.5-6.1-10.1-10.3-10.8h8.4c3.6,0,7.8,3.5,9.8,8.9L40,47.5c1.3,2.7,3.3,5.2,5.5,6.6c0.3-0.3,0.5-0.6,0.8-0.9
	c-0.9-0.9-1.9-2.7-2.6-3.7c-2.4-4.5-4.5-9.6-6.5-14.8C34.6,28,31.1,24.4,27,23.8h8.4c3.6,0,7.8,3.5,9.8,8.9l4.9,11.9l6.5-26.7
	C59,8,51.5-0.1,40-0.1z M21.2,36.9c1.3,0,2.5,0.3,3.6,0.7c1.2,4.1,2.8,8,5.1,11.5c-1.2,3.7-4.7,6.3-8.8,6.3c-5.1,0-9.3-4.1-9.3-9.3
	S16.1,36.9,21.2,36.9z"/>
<path fill-rule="evenodd" clip-rule="evenodd" fill="#FFFFFF" d="M12,46.1c0,5.1,4.1,9.3,9.3,9.3c4.1,0,7.5-2.6,8.8-6.3
	c-2.3-3.5-3.9-7.4-5.1-11.5c-1.1-0.5-2.4-0.7-3.6-0.7C16.1,36.9,12,41,12,46.1z"/>
<path fill-rule="evenodd" clip-rule="evenodd" fill="#FFFFFF" d="M40,47.5l-6.1-14.7c-2-5.4-6.2-8.9-9.8-8.9h-8.4
	c4.2,0.6,7.6,4.2,10.3,10.8c1.9,5.3,4,10.3,6.5,14.8c2.8,4.2,6.9,6,12.1,5.8c0.3-0.3,0.6-0.7,0.9-1.1C43.3,52.7,41.3,50.2,40,47.5z"
	/>
<path fill-rule="evenodd" clip-rule="evenodd" fill="#FFFFFF" d="M45.2,32.7c-2-5.4-6.2-8.9-9.8-8.9H27c4.2,0.6,7.6,4.2,10.3,10.8
	c1.9,5.3,4,10.3,6.5,14.8c0.7,1,1.7,2.9,2.6,3.7c1.7-2.2,2.9-4.6,3.5-7.1l0.3-1.4L45.2,32.7z"/>
</svg>
